<?xml version="1.0" encoding="UTF-8" standalone="no"?>
<svg
   xmlns:dc="http://purl.org/dc/elements/1.1/"
   xmlns:cc="http://creativecommons.org/ns#"
   xmlns:rdf="http://www.w3.org/1999/02/22-rdf-syntax-ns#"
   xmlns:svg="http://www.w3.org/2000/svg"
   xmlns="http://www.w3.org/2000/svg"
   id="svg8"
   version="1.1"
   viewBox="0 0 50 50"
   height="50"
   width="50">
  <defs
     id="defs2" />
  <metadata
     id="metadata5">
    <rdf:RDF>
      <cc:Work
         rdf:about="">
        <dc:format>image/svg+xml</dc:format>
        <dc:type
           rdf:resource="http://purl.org/dc/dcmitype/StillImage" />
        <dc:title></dc:title>
      </cc:Work>
    </rdf:RDF>
  </metadata>
  <g
     transform="translate(-33.866667,-212.25784)"
     id="layer1">
    <path
       id="path837-4"
       d="m 58.866754,212.25763 a 25.000037,25.000037 0 0 0 -25.000086,25.0001 25.000037,25.000037 0 0 0 25.000086,25.00011 25.000037,25.000037 0 0 0 24.999915,-25.00011 25.000037,25.000037 0 0 0 -24.999915,-25.0001 z m 0,20.07787 a 4.9222873,4.9222873 0 0 1 4.922237,4.92223 4.9222873,4.9222873 0 0 1 -4.922237,4.92223 4.9222873,4.9222873 0 0 1 -4.922412,-4.92223 4.9222873,4.9222873 0 0 1 4.922412,-4.92223 z"
       style="opacity:1;fill:#000000;fill-opacity:1;stroke:none;stroke-width:0.55000007;stroke-linejoin:miter;stroke-miterlimit:4;stroke-dasharray:none;stroke-opacity:1" />
  </g>
</svg>
