<svg width="71" height="71" viewBox="0 0 71 71" fill="none" xmlns="http://www.w3.org/2000/svg">
<g clip-path="url(#clip0)">
<path d="M47.6899 26.4374C47.6899 25.2216 46.7013 24.2328 45.4863 24.2328H39.0829C38.5083 24.2328 38.0428 24.6983 38.0428 25.2728C38.0428 25.8473 38.5083 26.3129 39.0829 26.3129H45.4863C45.5522 26.3129 45.6099 26.3711 45.6099 26.4374V32.8424C45.6099 33.4169 46.0754 33.8824 46.6499 33.8824C47.2244 33.8824 47.6899 33.4169 47.6899 32.8424V26.4374Z" fill="black"/>
<path d="M17.6967 51.1605C17.6967 52.3761 18.6852 53.365 19.9004 53.365H26.2998C26.8742 53.365 27.3398 52.8994 27.3398 52.3249C27.3398 51.7504 26.8742 51.2849 26.2998 51.2849H19.9004C19.8345 51.2849 19.7768 51.2268 19.7768 51.1605V44.7515C19.7768 44.177 19.3112 43.7115 18.7368 43.7115C18.1624 43.7115 17.6967 44.177 17.6967 44.7515V51.1605Z" fill="black"/>
<path d="M18.7368 33.8824C19.3112 33.8824 19.7768 33.4169 19.7768 32.8424V26.4374C19.7768 26.371 19.8345 26.3129 19.9004 26.3129H26.2998C26.8742 26.3129 27.3398 25.8473 27.3398 25.2728C27.3398 24.6983 26.8742 24.2328 26.2998 24.2328H19.9004C18.6853 24.2328 17.6967 25.2218 17.6967 26.4374V32.8424C17.6967 33.4169 18.1624 33.8824 18.7368 33.8824Z" fill="black"/>
<path d="M46.6499 43.7115C46.0754 43.7115 45.6099 44.177 45.6099 44.7515V51.1605C45.6099 51.2269 45.5522 51.2849 45.4863 51.2849H39.0829C38.5083 51.2849 38.0428 51.7504 38.0428 52.3249C38.0428 52.8994 38.5083 53.365 39.0829 53.365H45.4863C46.7013 53.365 47.6899 52.376 47.6899 51.1605V44.7515C47.6899 44.177 47.2244 43.7115 46.6499 43.7115Z" fill="black"/>
<path d="M38.8416 11.8215C38.8416 11.247 38.3761 10.7815 37.8015 10.7815H7.60852C7.03414 10.7815 6.56848 11.247 6.56848 11.8215C6.56848 12.396 7.03414 12.8616 7.60852 12.8616H37.8014C38.3759 12.8616 38.8416 12.396 38.8416 11.8215Z" fill="black"/>
<path d="M46.4537 12.5609L46.4576 12.557C46.8637 12.1507 46.8617 11.4942 46.4555 11.0881C46.0493 10.6819 45.3891 10.6841 44.9827 11.09C44.5765 11.4963 44.5765 12.1547 44.9827 12.5609C45.1858 12.7639 45.4521 12.8654 45.7182 12.8654C45.9843 12.8654 46.2505 12.7639 46.4537 12.5609Z" fill="black"/>
<path d="M51.6935 12.5609L51.6974 12.557C52.1036 12.1507 52.1015 11.4942 51.6953 11.0881C51.2892 10.6819 50.629 10.6841 50.2225 11.09C49.8163 11.4963 49.8163 12.1547 50.2225 12.5609C50.4257 12.7639 50.6919 12.8654 50.958 12.8654C51.2241 12.8654 51.4905 12.7639 51.6935 12.5609Z" fill="black"/>
<path d="M56.9336 12.5609L56.9374 12.557C57.3436 12.1507 57.3415 11.4942 56.9354 11.0881C56.5292 10.6819 55.869 10.6841 55.4625 11.09C55.0564 11.4963 55.0564 12.1547 55.4625 12.5609C55.6657 12.7639 55.9319 12.8654 56.198 12.8654C56.4642 12.8654 56.7304 12.7639 56.9336 12.5609Z" fill="black"/>
<path d="M65.3867 46.7883V6.60466C65.3867 5.56254 64.5393 4.71484 63.4976 4.71484H1.88913C0.847424 4.71484 0 5.56254 0 6.60466V58.8519C0 59.894 0.847424 60.7419 1.88913 60.7419H30.4153C30.9897 60.7419 31.4554 60.2764 31.4554 59.7018C31.4554 59.1273 30.9897 58.6618 30.4153 58.6618H2.08008V18.9323H30.4718C31.032 18.9323 31.486 18.4668 31.486 17.8923C31.486 17.3178 31.0319 16.8522 30.4718 16.8522H2.08008V6.79492H63.3066V16.8521H34.9647C34.4045 16.8521 33.9505 17.3176 33.9505 17.8921C33.9505 18.4667 34.4046 18.9322 34.9647 18.9322H63.3068V45.9884C62.4711 45.7689 61.5947 45.6511 60.6911 45.6511C55.0067 45.6511 50.382 50.2792 50.382 55.968C50.382 56.8998 50.5082 57.8023 50.7407 58.6617H35.2189C34.6445 58.6617 34.1789 59.1272 34.1789 59.7017C34.1789 60.2762 34.6445 60.7417 35.2189 60.7417H51.5563C53.2806 64.0333 56.7271 66.2852 60.691 66.2852C66.3753 66.2852 71 61.657 71 55.9681C71 51.9714 68.7158 48.5008 65.3867 46.7883ZM60.691 64.2051C56.1535 64.2051 52.4619 60.51 52.4619 55.9681C52.4619 51.4263 56.1535 47.7313 60.691 47.7313C65.2285 47.7313 68.9199 51.4263 68.9199 55.9681C68.9199 60.51 65.2285 64.2051 60.691 64.2051Z" fill="black"/>
<path d="M64.8036 52.5074C64.3676 52.1331 63.711 52.1837 63.3372 52.6197L59.4298 57.1744L57.9273 55.8899C57.4902 55.5163 56.8339 55.5682 56.461 56.0044C56.0877 56.441 56.139 57.0976 56.5755 57.4708L58.8672 59.43C59.0631 59.5977 59.3035 59.6797 59.5425 59.6797C59.8355 59.6797 60.1268 59.5565 60.3324 59.3168L64.9158 53.974C65.2899 53.5379 65.2397 52.8814 64.8036 52.5074Z" fill="black"/>
<path d="M42.1714 43.2425L42.1709 33.8732C42.1709 33.8232 42.1662 33.7744 42.1594 33.7262C42.1587 33.7203 42.1576 33.7145 42.1567 33.7085C42.1519 33.6791 42.1461 33.65 42.1389 33.6214C42.0647 33.2862 41.8456 32.9906 41.511 32.7994L33.4937 28.3348C33.0075 28.0633 32.3793 28.0629 31.8933 28.3347L23.8743 32.8001C23.4332 33.0904 23.2137 33.4553 23.2156 33.8943V43.1109L23.2152 43.2425C23.2119 43.91 23.2751 44.4579 24.1077 44.9246C26.7017 46.3681 29.2996 47.8159 31.8937 49.2635C31.899 49.2664 31.9044 49.2694 31.9096 49.2722C32.1477 49.3996 32.4205 49.4633 32.6933 49.4633C32.966 49.4633 33.2388 49.3996 33.4768 49.2723C33.4822 49.2694 33.4876 49.2664 33.493 49.2635C36.0869 47.816 38.6807 46.3684 41.2818 44.9229C42.1116 44.4578 42.175 43.91 42.1714 43.2425ZM31.6514 46.7467C29.5323 45.5645 27.412 44.383 25.2956 43.2052L25.2958 35.7348L31.6516 39.277V46.7467H31.6514ZM32.6934 37.4764L26.2256 33.8716L32.6934 30.2699L39.1614 33.8716L32.6934 37.4764ZM33.7315 46.7492V39.2791L40.091 35.7346V43.1109L40.0913 43.205C37.9692 44.3843 35.8504 45.5667 33.7315 46.7492Z" fill="black"/>
</g>
<defs>
<clipPath id="clip0">
<rect width="71" height="71" fill="white"/>
</clipPath>
</defs>
</svg>