<svg width="71" height="71" viewBox="0 0 71 71" fill="none" xmlns="http://www.w3.org/2000/svg">
<g clip-path="url(#clip0)">
<path d="M70.8139 29.3471L67.7631 24.063C67.3801 23.3999 66.5321 23.1726 65.8689 23.5555L61.7857 25.9129L60.1216 23.0306L64.2048 20.6732C64.5234 20.4893 64.7558 20.1865 64.8509 19.8312C64.9462 19.4759 64.8962 19.0974 64.7124 18.779L61.6616 13.4949C61.2786 12.8318 60.4307 12.6043 59.7673 12.9874L55.6842 15.3448L54.0201 12.4625L58.1033 10.1051C58.7665 9.7222 58.9938 8.87408 58.6108 8.21082L55.5601 2.92675C55.1772 2.26362 54.3291 2.03634 53.6658 2.41921L49.5826 4.77662L47.2252 0.693447C47.0413 0.374919 46.7385 0.142506 46.3832 0.0473777C46.0281 -0.0476122 45.6496 0.00203217 45.331 0.18591L32.8414 7.39682C32.1781 7.77969 31.9508 8.6278 32.3339 9.29107L37.8581 18.8594H31.8944C31.1287 18.8594 30.5077 19.4802 30.5077 20.2461V24.9609H27.1796V20.2461C27.1796 19.4802 26.5586 18.8594 25.7929 18.8594H19.6913C18.9256 18.8594 18.3046 19.4802 18.3046 20.2461V24.9609H14.9765V20.2461C14.9765 19.4802 14.3555 18.8594 13.5898 18.8594H7.48825C6.72251 18.8594 6.10154 19.4802 6.10154 20.2461V24.9609H1.38671C0.62097 24.9609 0 25.5818 0 26.3476V69.6131C0 70.379 0.62097 70.9998 1.38671 70.9998H44.0975C44.8632 70.9998 45.4842 70.379 45.4842 69.6131V32.0682L53.6891 46.2796C53.873 46.5981 54.1758 46.8305 54.5311 46.9256C54.6493 46.9572 54.7698 46.9729 54.89 46.9729C55.1313 46.9729 55.3708 46.9098 55.5834 46.7871L68.0729 39.5762C68.7362 39.1933 68.9635 38.3452 68.5805 37.6819L66.223 33.5988L70.3062 31.2414C70.9696 30.8585 71.1969 30.0105 70.8139 29.3471ZM57.0709 17.7466L59.9532 16.0825L61.6172 18.9648L58.7349 20.6288L57.9029 19.1878L57.0709 17.7466ZM50.9693 7.17841L53.8516 5.51436L55.5157 8.39664L52.6334 10.0607L51.6949 8.43519L50.9693 7.17841ZM41.3808 24.9609H39.3827V21.5002L41.3808 24.9609ZM33.2811 21.6328H36.6092V24.9609H33.2811V21.6328ZM21.078 21.6328H24.4062V24.9609H21.078V21.6328ZM8.87496 21.6328H12.2031V24.9609H8.87496V21.6328ZM2.77343 27.7344H42.7108V39.3827H28.9823C28.2166 39.3827 27.5956 40.0036 27.5956 40.7695C27.5956 41.5353 28.2166 42.1562 28.9823 42.1562H42.7108V53.8046H2.77343V42.1562H16.5019C17.2676 42.1562 17.8886 41.5353 17.8886 40.7695C17.8886 40.0036 17.2676 39.3827 16.5019 39.3827H2.77343V27.7344ZM42.7108 68.2264H2.77343V56.578H42.7108V68.2264ZM55.3975 43.692L35.4289 9.10511L45.5166 3.28092L65.4853 37.8678L55.3975 43.692ZM64.8365 31.197L64.1109 29.9402L63.1724 28.3147L66.0547 26.6506L67.7188 29.5329L64.8365 31.197Z" fill="black"/>
<path d="M22.7421 42.1562C23.1068 42.1562 23.4646 42.0078 23.7224 41.7499C23.9803 41.492 24.1288 41.1342 24.1288 40.7695C24.1288 40.4048 23.9805 40.047 23.7224 39.7891C23.4646 39.5312 23.1068 39.3828 22.7421 39.3828C22.3774 39.3828 22.0196 39.5312 21.7617 39.7891C21.5038 40.047 21.3554 40.4048 21.3554 40.7695C21.3554 41.1342 21.5036 41.492 21.7617 41.7499C22.0198 42.0078 22.3774 42.1562 22.7421 42.1562Z" fill="black"/>
</g>
<defs>
<clipPath id="clip0">
<rect width="71" height="71" fill="white"/>
</clipPath>
</defs>
</svg>
