<svg width="243" height="243" viewBox="0 0 243 243" fill="none" xmlns="http://www.w3.org/2000/svg">
<g clip-path="url(#clip0)">
<path d="M242.715 18.1406C242.189 8.48798 234.512 0.81212 224.859 0.285304C205.382 -0.77877 167.269 0.256354 130.825 19.1064C112.246 28.7163 92.5976 45.0092 76.917 63.8075C76.7238 64.0391 76.5358 64.2721 76.3441 64.5042L40.7579 67.2532C34.9003 67.7059 29.6829 70.7762 26.4432 75.6761L2.16503 112.398C-0.292018 116.114 -0.682622 120.764 1.11947 124.838C2.92204 128.912 6.62589 131.751 11.0279 132.433L41.0094 137.077C40.9036 137.66 40.7973 138.242 40.7 138.825C39.7019 144.795 41.6801 150.934 45.9924 155.246L87.7542 197.008C91.3294 200.583 96.1605 202.554 101.111 202.554C102.13 202.554 103.155 202.47 104.176 202.3C104.758 202.203 105.341 202.096 105.924 201.99L110.567 231.973C111.249 236.375 114.088 240.079 118.161 241.881C119.856 242.631 121.65 243.001 123.435 243.001C125.943 243.001 128.432 242.271 130.602 240.836L167.324 216.557C172.224 213.317 175.294 208.1 175.746 202.243L178.495 166.657C178.727 166.465 178.96 166.277 179.192 166.084C197.991 150.403 214.284 130.754 223.894 112.175C242.745 75.7297 243.778 37.6162 242.715 18.1406ZM159.471 204.68L124.345 227.904L119.819 198.684C134.665 194.319 149.351 187.328 163.342 177.963L161.551 201.145C161.44 202.591 160.681 203.88 159.471 204.68ZM97.8221 186.94L56.0598 145.178C54.9943 144.112 54.5016 142.614 54.7432 141.172C55.9848 133.748 57.9141 126.68 60.3023 120.023L122.964 182.684C114.968 185.549 107.805 187.257 101.828 188.257C100.383 188.497 98.8876 188.006 97.8221 186.94ZM41.8547 81.4492L65.0365 79.6585C55.6706 93.6495 48.6796 108.335 44.3146 123.181L15.0958 118.656L38.3203 83.5289C39.1205 82.3187 40.4091 81.5607 41.8547 81.4492ZM170.073 155.149C158.572 164.743 147.407 171.681 137.117 176.702L66.2952 105.881C72.8723 92.4473 80.8994 81.2613 87.8505 72.9281C102.362 55.5313 120.41 40.5236 137.367 31.7529C170.815 14.4519 206.055 13.5203 224.084 14.5018C226.471 14.6318 228.369 16.5298 228.499 18.9166C229.482 36.946 228.548 72.1858 211.247 105.634C202.477 122.591 187.469 140.638 170.073 155.149Z" fill="white"/>
<path d="M166.455 112.123C175.569 112.122 184.686 108.653 191.624 101.714C198.348 94.9916 202.05 86.0528 202.05 76.5454C202.05 67.0381 198.347 58.0993 191.624 51.3764C177.746 37.4974 155.164 37.4984 141.286 51.3764C134.563 58.0993 130.861 67.0381 130.861 76.5454C130.861 86.0528 134.564 94.9916 141.286 101.714C148.226 108.654 157.339 112.124 166.455 112.123ZM151.353 61.4438C155.517 57.2801 160.986 55.1985 166.455 55.1985C171.924 55.1985 177.393 57.2801 181.556 61.4438C185.59 65.4775 187.811 70.8406 187.811 76.545C187.811 82.2493 185.59 87.6129 181.556 91.6466C173.23 99.9736 159.68 99.9731 151.353 91.6466C147.319 87.6129 145.098 82.2498 145.098 76.5454C145.098 70.8411 147.32 65.4775 151.353 61.4438Z" fill="white"/>
<path d="M7.262 200.256C9.08403 200.256 10.9061 199.561 12.2957 198.17L35.5388 174.927C38.319 172.147 38.319 167.64 35.5388 164.859C32.759 162.079 28.2511 162.079 25.4709 164.859L2.22829 188.102C-0.551969 190.883 -0.551969 195.39 2.22829 198.17C3.61795 199.56 5.43997 200.256 7.262 200.256Z" fill="white"/>
<path d="M56.8397 186.16C54.0599 183.38 49.5521 183.38 46.7718 186.16L2.08543 230.847C-0.694829 233.627 -0.694829 238.135 2.08543 240.915C3.47556 242.305 5.29711 243 7.11914 243C8.94116 243 10.7632 242.305 12.1528 240.915L56.8392 196.228C59.62 193.448 59.62 188.941 56.8397 186.16Z" fill="white"/>
<path d="M68.0727 207.461L44.8297 230.704C42.0494 233.484 42.0494 237.992 44.8297 240.772C46.2198 242.162 48.0419 242.858 49.8634 242.858C51.685 242.858 53.5075 242.163 54.8971 240.772L78.1402 217.529C80.9204 214.749 80.9204 210.241 78.1402 207.461C75.3604 204.681 70.8525 204.681 68.0727 207.461Z" fill="white"/>
</g>
<defs>
<clipPath id="clip0">
<rect width="243" height="243" fill="white"/>
</clipPath>
</defs>
</svg>