<svg width="71" height="71" viewBox="0 0 71 71" fill="none" xmlns="http://www.w3.org/2000/svg">
<path d="M47.5572 0H23.5714C19.4936 0 16.0287 3.32496 16.0287 7.40165V63.6068C16.0287 67.6835 19.4203 71 23.4981 71L47.5234 70.9741C51.6007 70.9741 54.9363 67.657 54.9363 63.5797L54.9713 7.3977C54.9707 3.30635 51.6514 0 47.5572 0ZM32.0992 4.43761H39.0582C39.6695 4.43761 40.1674 4.93387 40.1674 5.54687C40.1674 6.15986 39.6695 6.65613 39.0582 6.65613H32.0992C31.4862 6.65613 30.9899 6.15986 30.9899 5.54687C30.9899 4.93387 31.4862 4.43761 32.0992 4.43761ZM27.9176 4.79063C28.3287 4.38008 29.0771 4.37444 29.4876 4.79063C29.6935 4.9959 29.8153 5.28407 29.8153 5.57845C29.8153 5.86718 29.6935 6.15479 29.4876 6.36062C29.2829 6.56646 28.9936 6.68771 28.7054 6.68771C28.4116 6.68771 28.1291 6.56646 27.9176 6.36062C27.7129 6.15535 27.5962 5.86718 27.5962 5.57845C27.5956 5.28407 27.7129 4.9959 27.9176 4.79063ZM35.3548 68.8012C33.5243 68.8012 32.0355 67.3113 32.0355 65.4813C32.0355 63.6508 33.5243 62.1614 35.3548 62.1614C37.1853 62.1614 38.6741 63.6508 38.6741 65.4813C38.6741 67.3113 37.1848 68.8012 35.3548 68.8012ZM51.5279 59.9051H19.9114V10.5394H51.5279V59.9051Z" fill="black"/>
</svg>
